<?xml version="1.0" encoding="utf-8"?>
<!-- Generator: Adobe Illustrator 19.0.0, SVG Export Plug-In . SVG Version: 6.00 Build 0)  -->
<svg version="1.1" id="Capa_1" xmlns="http://www.w3.org/2000/svg" xmlns:xlink="http://www.w3.org/1999/xlink" x="0px" y="0px"
	 viewBox="-261.4 388.3 137.7 32.3" style="enable-background:new -261.4 388.3 137.7 32.3;" xml:space="preserve">
<style type="text/css">
	.st0{fill:#FFFFFF;}
	.st1{fill:#FF7B22;}
	.st2{fill:#E0BC27;}
	.st3{fill:#EFD297;}
</style>
<g id="XMLID_16_">
	<path id="XMLID_33_" class="st0" d="M-181.3,405.9c0,1.5-0.3,3-0.8,4.1c-0.5,1.2-1.3,2.1-2.3,2.7c-1,0.6-2.2,0.9-3.5,0.9
		c-1.9,0-3.6-0.6-4.8-2.1s-1.8-3.3-1.8-5.7v-1.8c0-1.5,0.3-3,0.8-4.1c0.5-1.2,1.3-2.1,2.3-2.7s2.2-0.9,3.5-0.9s2.4,0.3,3.5,0.9
		c1,0.6,1.8,1.5,2.3,2.7c0.5,1.2,0.8,2.4,0.9,4v1.9H-181.3z M-182.7,404c0-2.1-0.5-3.6-1.4-4.8s-2.2-1.7-3.7-1.7
		c-1.5,0-2.8,0.5-3.7,1.7c-0.9,1.2-1.4,2.8-1.4,4.9v1.8c0,2.1,0.5,3.6,1.4,4.8c0.9,1.2,2.2,1.8,3.7,1.8c1.7,0,2.8-0.5,3.7-1.7
		s1.4-2.7,1.4-4.9C-182.7,405.9-182.7,404-182.7,404z"/>
	<path id="XMLID_36_" class="st0" d="M-176.6,400.9v2.2c0.5-0.8,1-1.4,1.8-1.8c0.6-0.4,1.4-0.6,2.3-0.6c1.3,0,2.3,0.4,3,1.2
		c0.6,0.8,1,1.9,1,3.3v8.2h-1.4v-8.2c0-1.2-0.3-1.9-0.8-2.4s-1.2-0.8-2.2-0.8c-0.9,0-1.7,0.3-2.3,0.8c-0.6,0.5-1.2,1.3-1.4,2.2v8.6
		h-1.4V401h1.4V400.9z"/>
	<path id="XMLID_38_" class="st0" d="M-165.2,413.4v-16.9h5.1c1.5,0,2.8,0.4,4,1c1.2,0.6,2.1,1.7,2.7,2.8c0.6,1.3,1,2.6,1,4.2v0.8
		c0,1.5-0.4,3-1,4.2c-0.6,1.3-1.5,2.2-2.7,2.8c-1.2,0.6-2.4,1-4,1h-5.1V413.4z M-161.7,399.4v11.3h1.7c1.4,0,2.4-0.4,3.1-1.3
		c0.8-0.9,1-2.2,1.2-3.9v-0.9c0-1.7-0.4-3-1-3.9c-0.8-0.9-1.8-1.3-3.1-1.3h-1.8V399.4z"/>
	<path id="XMLID_41_" class="st0" d="M-150.1,397.6c0-0.5,0.1-0.9,0.5-1.3c0.4-0.4,0.8-0.5,1.4-0.5c0.5,0,1,0.1,1.4,0.5
		c0.4,0.4,0.5,0.8,0.5,1.3c0,0.5-0.1,0.9-0.5,1.3c-0.4,0.4-0.8,0.5-1.4,0.5c-0.5,0-1-0.1-1.4-0.5
		C-149.9,398.6-150.1,398.1-150.1,397.6z M-146.5,413.4h-3.3v-12.5h3.3V413.4z"/>
	<path id="XMLID_44_" class="st0" d="M-138,413.7c-1.8,0-3.3-0.5-4.5-1.7c-1.2-1.2-1.7-2.6-1.7-4.5v-0.4c0-1.3,0.3-2.4,0.8-3.3
		c0.5-0.9,1.2-1.8,2.1-2.3c0.9-0.5,1.9-0.8,3.1-0.8c1.7,0,3.1,0.5,4,1.7c1,1,1.4,2.6,1.4,4.6v1.4h-8c0.1,0.8,0.4,1.4,1,1.9
		c0.6,0.5,1.3,0.8,2.1,0.8c1.3,0,2.3-0.5,3.1-1.4l1.7,1.8c-0.5,0.8-1.2,1.3-2.1,1.7C-136,413.5-136.9,413.7-138,413.7z
		 M-138.4,403.4c-0.6,0-1.2,0.3-1.7,0.6c-0.4,0.5-0.6,1.2-0.8,1.9h4.8v-0.3c0-0.8-0.3-1.3-0.6-1.7
		C-137.1,403.5-137.7,403.4-138.4,403.4z"/>
	<path id="XMLID_47_" class="st0" d="M-127,397.8v3.1h2.2v2.4h-2.2v6.3c0,0.5,0.1,0.8,0.3,1c0.1,0.3,0.5,0.3,1,0.3
		c0.4,0,0.6,0,1-0.1v2.6c-0.6,0.3-1.3,0.3-2.1,0.3c-2.3,0-3.6-1.2-3.6-3.6v-6.8h-1.8v-2.4h1.8v-3.1h3.3V397.8z"/>
</g>
<g id="XMLID_32_">
</g>
<g id="XMLID_49_">
</g>
<g id="XMLID_50_">
</g>
<g id="XMLID_51_">
</g>
<g id="XMLID_52_">
</g>
<g id="XMLID_53_">
</g>
<g>
	<path class="st1" d="M-219.2,417.1c-14.6,6.6-31.8,0.1-38.4-14.5c-1.3-2.9-2.1-6-2.4-9c1.4-0.3,2.7-0.6,4.1-0.9
		c7-1.4,14.2-2.4,21.4-2.6c2.8-0.1,5.7,0,8.5,0.2c1.3,0.1,2.5,0.2,3.8,0.3l8.1,1.4c3.2,0.7,5.7,1.6,8.9,2.8c0.7,0.2,2,0.9,2.7,1.2
		C-204.1,405.3-210,413-219.2,417.1z"/>
	<g>
		<path class="st2" d="M-249.1,403.6l14.4-13.6c-6.6,0.2-13.3,1-19.8,2.4c0.3,1.9,0.8,3.8,1.6,5.6
			C-251.9,400.1-250.6,402-249.1,403.6z"/>
		<path class="st2" d="M-239.6,410c2.2,0.9,4.4,1.4,6.6,1.5l1.2-20.4l-13.6,15.3C-243.7,407.9-241.8,409.1-239.6,410z"/>
		<path class="st3" d="M-205.3,394.9c-0.6-0.2-1.3-0.5-1.9-0.7c-0.4,1.8-1,3.6-1.9,5.4c-1.1,2.1-2.5,3.9-4.2,5.4l-13.6-14.7
			c-2.6-0.2-5.2-0.2-7.8-0.2l-14.4,13.6c-1.5-1.6-2.8-3.5-3.8-5.6c-0.8-1.8-1.3-3.7-1.6-5.6c-1.3,0.3-2.5,0.5-3.8,0.8 M-258.3,393.2
			c0.3,2.8,1,5.6,2.2,8.3c6.1,13.5,21.9,19.4,35.4,13.3c8.4-3.8,13.9-11.5,15.4-20 M-233,411.6c-2.2-0.1-4.4-0.6-6.6-1.5
			c-2.2-0.9-4.1-2.1-5.7-3.6l13.6-15.3L-233,411.6z M-222.1,410.6c-2.2,0.9-4.4,1.3-6.6,1.4l-0.9-20.4l13.4,15.5
			C-218,408.5-220,409.8-222.1,410.6z"/>
		<path class="st2" d="M-228.8,412.1c2.2-0.1,4.5-0.6,6.6-1.4c2.2-0.9,4.1-2.1,5.8-3.5l-13.4-15.5L-228.8,412.1z"/>
		<path class="st2" d="M-209.1,399.5c0.9-1.7,1.6-3.5,1.9-5.4c-2.9-1-5.9-1.9-8.8-2.5l-7.4-1.2c-1.2-0.1-2.3-0.2-3.5-0.3l13.6,14.7
			C-211.6,403.4-210.2,401.6-209.1,399.5z"/>
	</g>
</g>
</svg>
