<?xml version="1.0" encoding="utf-8"?>
<!-- Generator: Adobe Illustrator 19.0.0, SVG Export Plug-In . SVG Version: 6.00 Build 0)  -->
<svg version="1.1" id="Capa_1" xmlns="http://www.w3.org/2000/svg" xmlns:xlink="http://www.w3.org/1999/xlink" x="0px" y="0px"
	 viewBox="-264 382.3 66 76.6" style="enable-background:new -264 382.3 66 76.6;" xml:space="preserve">
<style type="text/css">
	.st0{fill:#A3BD31;}
	.st1{fill:#4F8E3A;}
	.st2{fill:#70A83B;}
</style>
<g id="XMLID_17_">
	<path id="XMLID_27_" class="st0" d="M-235.9,436.9L-235.9,436.9c1.6-0.4,3.2-1,4.6-1.8c0-12.2-11.5-22.9-25.1-19.5l0,0
		c-1.6,0.4-3.2,1-4.6,1.8C-260.9,429.5-249.4,440.3-235.9,436.9z"/>
	<path id="XMLID_15_" class="st1" d="M-226.9,437.3L-226.9,437.3c-1.6-0.6-3-1.3-4.4-2.2c1.2-12.2,13.6-21.8,26.8-17.1l0,0
		c1.6,0.6,3,1.3,4.4,2.2C-201.2,432.3-213.7,442-226.9,437.3z"/>
	<path id="XMLID_14_" class="st2" d="M-227.4,432.1L-227.4,432.1c-1.2,1.2-2.5,2.1-3.9,3c-10.4-6.4-13.4-21.9-3.3-31.6l0,0
		c1.2-1.2,2.5-2.1,3.9-3C-220.3,407-217.3,422.4-227.4,432.1z"/>
</g>
<g id="XMLID_32_">
</g>
<g id="XMLID_49_">
</g>
<g id="XMLID_50_">
</g>
<g id="XMLID_51_">
</g>
<g id="XMLID_52_">
</g>
<g id="XMLID_53_">
</g>
</svg>
